<svg data-v-423bf9ae="" xmlns="http://www.w3.org/2000/svg" viewBox="0 0 448.2584193009389 60" class="font"><!----><!----><defs data-v-423bf9ae=""><linearGradient data-v-423bf9ae="" gradientTransform="rotate(25)" id="a10a0c24-a5c0-4e0b-8503-384b332d283e" x1="0%" y1="0%" x2="100%" y2="0%"><stop data-v-423bf9ae="" offset="0%" style="stop-color: rgb(32, 72, 79); stop-opacity: 1;"></stop><stop data-v-423bf9ae="" offset="100%" style="stop-color: rgb(78, 155, 171); stop-opacity: 1;"></stop></linearGradient></defs><g data-v-423bf9ae="" id="0c9c24e2-f0e6-4c22-a76c-88b902f3477b" fill="url(#a10a0c24-a5c0-4e0b-8503-384b332d283e)" transform="matrix(5.61797736755893,0,0,5.61797736755893,-3.539332641739861,-19.438200952388414)"><path d="M3.86 13.99L3.86 13.99L3.86 13.99Q3.22 13.99 2.64 13.73L2.64 13.73L2.64 13.73Q2.05 13.47 1.61 13.00L1.61 13.00L1.61 13.00Q1.16 12.53 0.90 11.83L0.90 11.83L0.90 11.83Q0.63 11.14 0.63 10.32L0.63 10.32L0.63 10.32Q0.63 9.44 0.90 8.73L0.90 8.73L0.90 8.73Q1.16 8.02 1.63 7.57L1.63 7.57L1.63 7.57Q2.10 7.12 2.71 6.88L2.71 6.88L2.71 6.88Q3.32 6.64 4.02 6.64L4.02 6.64L4.02 6.64Q5.02 6.64 6.00 7.09L6.00 7.09L6.00 9.20L5.71 9.20L4.96 7.37L4.96 7.37Q4.55 7.27 4.14 7.27L4.14 7.27L4.14 7.27Q3.07 7.27 2.56 8.07L2.56 8.07L2.56 8.07Q2.04 8.86 2.04 10.32L2.04 10.32L2.04 10.32Q2.04 11.72 2.72 12.46L2.72 12.46L2.72 12.46Q3.40 13.21 4.58 13.21L4.58 13.21L4.58 13.21Q4.98 13.21 5.31 13.10L5.31 13.10L5.31 13.10Q5.63 13.00 6.10 12.73L6.10 12.73L6.32 13.17L6.32 13.17Q5.71 13.64 5.14 13.82L5.14 13.82L5.14 13.82Q4.57 13.99 3.86 13.99ZM12.82 12.87L14.09 13.22L14.09 13.47L12.61 13.93L12.61 13.93Q12.17 14.03 11.87 13.83L11.87 13.83L11.87 13.83Q11.57 13.64 11.57 13.17L11.57 13.17L11.57 13.17Q10.68 13.99 9.48 13.99L9.48 13.99L9.48 13.99Q8.49 13.99 8.00 13.48L8.00 13.48L8.00 13.48Q7.51 12.97 7.51 12.20L7.51 12.20L7.51 12.20Q7.51 11.61 7.77 11.17L7.77 11.17L7.77 11.17Q8.03 10.72 8.43 10.45L8.43 10.45L8.43 10.45Q8.83 10.19 9.39 10.01L9.39 10.01L9.39 10.01Q9.95 9.83 10.47 9.76L10.47 9.76L10.47 9.76Q10.99 9.69 11.57 9.68L11.57 9.68L11.57 9.02L11.57 9.02Q11.57 8.07 11.27 7.69L11.27 7.69L11.27 7.69Q10.96 7.31 10.27 7.31L10.27 7.31L10.27 7.31Q9.74 7.31 9.03 7.48L9.03 7.48L8.31 9.06L7.97 9.06L7.97 7.12L7.97 7.12Q8.59 6.90 9.27 6.77L9.27 6.77L9.27 6.77Q9.95 6.65 10.47 6.65L10.47 6.65L10.47 6.65Q11.60 6.65 12.21 7.11L12.21 7.11L12.21 7.11Q12.82 7.56 12.82 8.60L12.82 8.60L12.82 12.87ZM10.06 13.19L10.06 13.19L10.06 13.19Q10.45 13.19 10.86 13.01L10.86 13.01L10.86 13.01Q11.27 12.82 11.57 12.49L11.57 12.49L11.57 10.24L11.57 10.24Q10.20 10.30 9.48 10.80L9.48 10.80L9.48 10.80Q8.76 11.29 8.76 12.06L8.76 12.06L8.76 12.06Q8.76 12.65 9.14 12.92L9.14 12.92L9.14 12.92Q9.52 13.19 10.06 13.19ZM17.30 13.05L18.49 13.54L18.49 13.82L14.79 13.82L14.79 13.54L16.04 13.05L16.04 7.92L14.79 7.42L14.79 7.14L17.17 6.65L17.30 6.79L17.30 7.61L17.30 7.61Q17.77 7.16 18.39 6.90L18.39 6.90L18.39 6.90Q19.01 6.65 19.64 6.65L19.64 6.65L19.64 6.65Q20.25 6.65 20.75 6.94L20.75 6.94L20.75 6.94Q21.25 7.23 21.51 7.81L21.51 7.81L21.51 7.81Q21.98 7.27 22.66 6.96L22.66 6.96L22.66 6.96Q23.34 6.65 24.04 6.65L24.04 6.65L24.04 6.65Q24.45 6.65 24.81 6.78L24.81 6.78L24.81 6.78Q25.17 6.91 25.46 7.17L25.46 7.17L25.46 7.17Q25.75 7.44 25.92 7.88L25.92 7.88L25.92 7.88Q26.09 8.31 26.09 8.88L26.09 8.88L26.09 13.05L27.36 13.54L27.36 13.82L23.65 13.82L23.65 13.54L24.83 13.05L24.83 9.30L24.83 9.30Q24.83 8.32 24.50 7.93L24.50 7.93L24.50 7.93Q24.16 7.55 23.35 7.55L23.35 7.55L23.35 7.55Q22.33 7.55 21.63 8.21L21.63 8.21L21.63 8.21Q21.70 8.55 21.70 8.88L21.70 8.88L21.70 13.05L22.89 13.54L22.89 13.82L19.25 13.82L19.25 13.54L20.44 13.05L20.44 9.30L20.44 9.30Q20.44 8.32 20.10 7.93L20.10 7.93L20.10 7.93Q19.76 7.55 18.96 7.55L18.96 7.55L18.96 7.55Q17.99 7.55 17.30 8.16L17.30 8.16L17.30 13.05ZM34.23 10.17L34.04 10.36L29.61 10.36L29.61 10.36Q29.62 11.13 29.83 11.70L29.83 11.70L29.83 11.70Q30.04 12.26 30.41 12.58L30.41 12.58L30.41 12.58Q30.77 12.91 31.20 13.06L31.20 13.06L31.20 13.06Q31.64 13.21 32.15 13.21L32.15 13.21L32.15 13.21Q32.86 13.21 33.67 12.73L33.67 12.73L33.89 13.14L33.89 13.14Q33.31 13.64 32.74 13.82L32.74 13.82L32.74 13.82Q32.16 13.99 31.43 13.99L31.43 13.99L31.43 13.99Q30.80 13.99 30.21 13.72L30.21 13.72L30.21 13.72Q29.62 13.45 29.18 12.98L29.18 12.98L29.18 12.98Q28.73 12.50 28.46 11.81L28.46 11.81L28.46 11.81Q28.20 11.12 28.20 10.32L28.20 10.32L28.20 10.32Q28.20 9.56 28.39 8.94L28.39 8.94L28.39 8.94Q28.59 8.31 28.91 7.90L28.91 7.90L28.91 7.90Q29.23 7.48 29.66 7.19L29.66 7.19L29.66 7.19Q30.08 6.90 30.53 6.78L30.53 6.78L30.53 6.78Q30.98 6.65 31.45 6.65L31.45 6.65L31.45 6.65Q32.03 6.65 32.52 6.87L32.52 6.87L32.52 6.87Q33.02 7.08 33.40 7.50L33.40 7.50L33.40 7.50Q33.79 7.92 34.01 8.61L34.01 8.61L34.01 8.61Q34.23 9.29 34.23 10.17L34.23 10.17ZM31.47 7.31L31.47 7.31L31.47 7.31Q30.69 7.31 30.22 7.94L30.22 7.94L30.22 7.94Q29.75 8.56 29.64 9.64L29.64 9.64L32.90 9.64L32.90 9.64Q32.90 8.54 32.53 7.93L32.53 7.93L32.53 7.93Q32.16 7.31 31.47 7.31ZM37.80 13.05L39.42 13.54L39.42 13.82L35.29 13.82L35.29 13.54L36.54 13.05L36.54 7.92L35.29 7.42L35.29 7.14L37.67 6.65L37.80 6.79L37.80 7.64L37.80 7.64Q38.84 6.65 40.54 6.65L40.54 6.65L40.54 8.17L40.26 8.26L39.26 7.72L39.26 7.72Q38.95 7.72 38.55 7.85L38.55 7.85L38.55 7.85Q38.16 7.98 37.80 8.24L37.80 8.24L37.80 13.05ZM48.05 5.03L46.14 5.48L45.99 4.87L48.80 3.58L49.33 3.58L49.33 13.01L50.74 13.29L50.74 13.82L46.22 13.82L46.22 13.29L48.05 13.01L48.05 5.03ZM55.86 4.23L55.86 4.23L55.86 4.23Q55.38 4.23 55.04 4.41L55.04 4.41L55.04 4.41Q54.69 4.58 54.45 4.89L54.45 4.89L54.45 4.89Q54.20 5.20 54.05 5.63L54.05 5.63L54.05 5.63Q53.89 6.06 53.81 6.57L53.81 6.57L53.81 6.57Q53.72 7.08 53.69 7.65L53.69 7.65L53.69 7.65Q53.66 8.22 53.66 8.81L53.66 8.81L53.66 8.81Q53.66 9.40 53.69 9.96L53.69 9.96L53.69 9.96Q53.72 10.53 53.81 11.03L53.81 11.03L53.81 11.03Q53.89 11.53 54.05 11.96L54.05 11.96L54.05 11.96Q54.20 12.39 54.45 12.70L54.45 12.70L54.45 12.70Q54.69 13.01 55.04 13.18L55.04 13.18L55.04 13.18Q55.39 13.36 55.86 13.36L55.86 13.36L55.86 13.36Q56.33 13.36 56.67 13.19L56.67 13.19L56.67 13.19Q57.01 13.02 57.25 12.71L57.25 12.71L57.25 12.71Q57.49 12.40 57.64 11.97L57.64 11.97L57.64 11.97Q57.80 11.55 57.88 11.04L57.88 11.04L57.88 11.04Q57.97 10.53 58.00 9.96L58.00 9.96L58.00 9.96Q58.03 9.39 58.03 8.80L58.03 8.80L58.03 8.80Q58.03 8.21 58.00 7.64L58.00 7.64L58.00 7.64Q57.97 7.08 57.88 6.57L57.88 6.57L57.88 6.57Q57.80 6.06 57.65 5.63L57.65 5.63L57.65 5.63Q57.50 5.20 57.25 4.89L57.25 4.89L57.25 4.89Q57.01 4.58 56.67 4.41L56.67 4.41L56.67 4.41Q56.33 4.23 55.86 4.23ZM55.78 14.10L55.78 14.10L55.78 14.10Q54.84 14.10 54.16 13.71L54.16 13.71L54.16 13.71Q53.47 13.31 53.07 12.58L53.07 12.58L53.07 12.58Q52.66 11.85 52.47 10.92L52.47 10.92L52.47 10.92Q52.28 9.98 52.28 8.81L52.28 8.81L52.28 8.81Q52.28 7.65 52.50 6.69L52.50 6.69L52.50 6.69Q52.72 5.74 53.16 5.00L53.16 5.00L53.16 5.00Q53.59 4.27 54.31 3.87L54.31 3.87L54.31 3.87Q55.02 3.46 55.96 3.46L55.96 3.46L55.96 3.46Q56.70 3.46 57.29 3.73L57.29 3.73L57.29 3.73Q57.88 3.99 58.27 4.46L58.27 4.46L58.27 4.46Q58.67 4.94 58.93 5.61L58.93 5.61L58.93 5.61Q59.19 6.29 59.31 7.08L59.31 7.08L59.31 7.08Q59.42 7.86 59.42 8.80L59.42 8.80L59.42 8.80Q59.42 9.95 59.20 10.90L59.20 10.90L59.20 10.90Q58.99 11.85 58.55 12.58L58.55 12.58L58.55 12.58Q58.12 13.30 57.41 13.70L57.41 13.70L57.41 13.70Q56.70 14.10 55.78 14.10ZM64.67 4.23L64.67 4.23L64.67 4.23Q64.19 4.23 63.84 4.41L63.84 4.41L63.84 4.41Q63.50 4.58 63.25 4.89L63.25 4.89L63.25 4.89Q63.01 5.20 62.85 5.63L62.85 5.63L62.85 5.63Q62.70 6.06 62.61 6.57L62.61 6.57L62.61 6.57Q62.53 7.08 62.50 7.65L62.50 7.65L62.50 7.65Q62.47 8.22 62.47 8.81L62.47 8.81L62.47 8.81Q62.47 9.40 62.50 9.96L62.50 9.96L62.50 9.96Q62.53 10.53 62.61 11.03L62.61 11.03L62.61 11.03Q62.70 11.53 62.85 11.96L62.85 11.96L62.85 11.96Q63.01 12.39 63.25 12.70L63.25 12.70L63.25 12.70Q63.50 13.01 63.85 13.18L63.85 13.18L63.85 13.18Q64.20 13.36 64.67 13.36L64.67 13.36L64.67 13.36Q65.13 13.36 65.47 13.19L65.47 13.19L65.47 13.19Q65.82 13.02 66.06 12.71L66.06 12.71L66.06 12.71Q66.29 12.40 66.45 11.97L66.45 11.97L66.45 11.97Q66.60 11.55 66.69 11.04L66.69 11.04L66.69 11.04Q66.77 10.53 66.80 9.96L66.80 9.96L66.80 9.96Q66.83 9.39 66.83 8.80L66.83 8.80L66.83 8.80Q66.83 8.21 66.80 7.64L66.80 7.64L66.80 7.64Q66.77 7.08 66.69 6.57L66.69 6.57L66.69 6.57Q66.60 6.06 66.45 5.63L66.45 5.63L66.45 5.63Q66.30 5.20 66.06 4.89L66.06 4.89L66.06 4.89Q65.82 4.58 65.47 4.41L65.47 4.41L65.47 4.41Q65.13 4.23 64.67 4.23ZM64.59 14.10L64.59 14.10L64.59 14.10Q63.65 14.10 62.96 13.71L62.96 13.71L62.96 13.71Q62.28 13.31 61.87 12.58L61.87 12.58L61.87 12.58Q61.47 11.85 61.28 10.92L61.28 10.92L61.28 10.92Q61.09 9.98 61.09 8.81L61.09 8.81L61.09 8.81Q61.09 7.65 61.30 6.69L61.30 6.69L61.30 6.69Q61.52 5.74 61.96 5.00L61.96 5.00L61.96 5.00Q62.40 4.27 63.11 3.87L63.11 3.87L63.11 3.87Q63.83 3.46 64.76 3.46L64.76 3.46L64.76 3.46Q65.51 3.46 66.10 3.73L66.10 3.73L66.10 3.73Q66.68 3.99 67.08 4.46L67.08 4.46L67.08 4.46Q67.47 4.94 67.73 5.61L67.73 5.61L67.73 5.61Q68.00 6.29 68.11 7.08L68.11 7.08L68.11 7.08Q68.22 7.86 68.22 8.80L68.22 8.80L68.22 8.80Q68.22 9.95 68.01 10.90L68.01 10.90L68.01 10.90Q67.79 11.85 67.36 12.58L67.36 12.58L67.36 12.58Q66.92 13.30 66.22 13.70L66.22 13.70L66.22 13.70Q65.51 14.10 64.59 14.10ZM76.73 11.74L76.73 11.74L76.73 11.74Q76.73 12.03 76.83 12.30L76.83 12.30L76.83 12.30Q76.93 12.56 77.11 12.77L77.11 12.77L77.11 12.77Q77.29 12.97 77.54 13.09L77.54 13.09L77.54 13.09Q77.78 13.21 78.07 13.21L78.07 13.21L78.07 13.21Q78.35 13.21 78.61 13.08L78.61 13.08L78.61 13.08Q78.86 12.96 79.05 12.75L79.05 12.75L79.05 12.75Q79.24 12.54 79.34 12.27L79.34 12.27L79.34 12.27Q79.45 12.00 79.45 11.70L79.45 11.70L79.45 11.70Q79.45 11.40 79.34 11.12L79.34 11.12L79.34 11.12Q79.24 10.85 79.05 10.64L79.05 10.64L79.05 10.64Q78.87 10.44 78.63 10.32L78.63 10.32L78.63 10.32Q78.38 10.20 78.09 10.20L78.09 10.20L78.09 10.20Q77.81 10.20 77.56 10.32L77.56 10.32L77.56 10.32Q77.31 10.44 77.13 10.65L77.13 10.65L77.13 10.65Q76.95 10.86 76.84 11.14L76.84 11.14L76.84 11.14Q76.73 11.42 76.73 11.74ZM73.79 6.10L73.79 6.10L73.79 6.10Q73.79 5.48 73.40 5.03L73.40 5.03L73.40 5.03Q73.01 4.59 72.43 4.59L72.43 4.59L72.43 4.59Q71.86 4.59 71.47 5.04L71.47 5.04L71.47 5.04Q71.08 5.50 71.08 6.14L71.08 6.14L71.08 6.14Q71.08 6.73 71.46 7.17L71.46 7.17L71.46 7.17Q71.85 7.61 72.41 7.61L72.41 7.61L72.41 7.61Q72.99 7.61 73.39 7.16L73.39 7.16L73.39 7.16Q73.79 6.71 73.79 6.10ZM74.76 6.10L74.76 6.10L74.76 6.10Q74.76 7.05 74.08 7.70L74.08 7.70L74.08 7.70Q73.40 8.35 72.43 8.35L72.43 8.35L72.43 8.35Q71.44 8.35 70.81 7.75L70.81 7.75L70.81 7.75Q70.17 7.14 70.17 6.19L70.17 6.19L70.17 6.19Q70.17 5.20 70.82 4.56L70.82 4.56L70.82 4.56Q71.47 3.92 72.45 3.92L72.45 3.92L72.45 3.92Q73.46 3.92 74.11 4.53L74.11 4.53L74.11 4.53Q74.76 5.13 74.76 6.10ZM80.42 11.70L80.42 11.70L80.42 11.70Q80.42 12.64 79.74 13.29L79.74 13.29L79.74 13.29Q79.06 13.95 78.09 13.95L78.09 13.95L78.09 13.95Q77.10 13.95 76.46 13.34L76.46 13.34L76.46 13.34Q75.82 12.74 75.82 11.79L75.82 11.79L75.82 11.79Q75.82 10.80 76.47 10.16L76.47 10.16L76.47 10.16Q77.12 9.52 78.11 9.52L78.11 9.52L78.11 9.52Q79.11 9.52 79.77 10.12L79.77 10.12L79.77 10.12Q80.42 10.73 80.42 11.70ZM77.24 3.74L78.15 3.74L73.38 14.14L72.46 14.14L77.24 3.74Z"></path></g><!----><!----></svg>